# xmcd CD database file
#
# Track frame offsets:
#	150
#	19924
#	37379
#	52449
#	66238
#	82284
#	97954
#	109791
#	119029
#	132713
#	145893
#	158133
#	170609
#	185550
#	206818
#	226787
#	245375
#	260389
#	275545
#	296658
#
# Disc length: 4156 seconds
#
# Revision: 0
# Processed by: cddbd v1.5.2PL0 Copyright (c) Steve Scherf et al.
# Submitted via: CDex 1.50
#
DISCID=45103a14
DTITLE=Lake City Stompers - The Greatest Hits CD2
DYEAR=1900
DGENRE=Jazz
TTITLE0=Indiana
TTITLE1=Trogs blues
TTITLE2=Wild cat blues
TTITLE3=Jerry's Boogie
TTITLE4=Schlafe mein Prinzchen 
TTITLE5=Creole Jazz
TTITLE6=Everybody loves on saturday night
TTITLE7=Red beans and rice
TTITLE8=My Monday date
TTITLE9=Ce monsieur gui parle
TTITLE10=Hotter than that
TTITLE11=St. Phillip St. Breakdown
TTITLE12=Moten shake
TTITLE13=Maryland my Maryland
TTITLE14=Big butter and egg men
TTITLE15=Lonesome road
TTITLE16=Charleston
TTITLE17=Tell me your dreams
TTITLE18=Black an tan fantasy
TTITLE19=Sentimental journey
EXTD=
EXTT0=
EXTT1=
EXTT2=
EXTT3=
EXTT4=
EXTT5=
EXTT6=
EXTT7=
EXTT8=
EXTT9=
EXTT10=
EXTT11=
EXTT12=
EXTT13=
EXTT14=
EXTT15=
EXTT16=
EXTT17=
EXTT18=
EXTT19=
PLAYORDER=
